<?xml version="1.0" standalone="no"?>
<!DOCTYPE svg PUBLIC "-//W3C//DTD SVG 20010904//EN"
 "http://www.w3.org/TR/2001/REC-SVG-20010904/DTD/svg10.dtd">
<svg version="1.0" xmlns="http://www.w3.org/2000/svg"
 width="178.000000pt" height="178.000000pt" viewBox="0 0 178.000000 178.000000"
 preserveAspectRatio="xMidYMid meet">
<metadata>
Created by potrace 1.14, written by Peter Selinger 2001-2017
</metadata>
<g transform="translate(0.000000,178.000000) scale(0.100000,-0.100000)"
fill="#000000" stroke="none">
<path d="M715 1761 c-289 -62 -512 -239 -634 -503 -21 -45 -44 -105 -50 -133
-6 -27 -14 -61 -18 -75 -12 -52 -10 -254 4 -329 62 -327 313 -596 645 -691 84
-25 283 -35 363 -19 28 5 59 11 70 13 11 2 52 15 90 29 257 90 458 294 545
550 37 109 43 150 44 272 1 134 -17 244 -53 330 -83 193 -187 322 -347 429
-188 125 -441 174 -659 127z"/>
</g>
</svg>
